<svg width="282" height="161" viewBox="0 0 282 161" fill="none" xmlns="http://www.w3.org/2000/svg">
<path d="M211.927 46.2183H185.167L173.375 63.9368L186.301 82.9841L211.927 46.2183Z" fill="white"/>
<path d="M124.619 84.5345L140.039 64.1582L187.889 136.361H282L217.143 49.319L204.217 67.7019L240.727 116.871H200.815L153.873 46.2183H126.887L112.6 65.0441L124.619 84.5345Z" fill="white"/>
<path d="M125.072 136.361H150.698L165.665 113.77L152.966 94.5012L137.999 116.649L93.7776 46.2183H75.6359L0.573486 136.361H28.4667L83.3459 70.1384L125.072 136.361Z" fill="white"/>
<path d="M85.8407 136.361L103.529 112.884L91.2831 93.3936L59.0812 136.361H85.8407Z" fill="white"/>
<path fill-rule="evenodd" clip-rule="evenodd" d="M121.725 26.592C122.204 24.5354 127.782 10.6698 128.315 8.38286C128.339 8.41734 128.369 8.4331 128.378 8.49241L128.56 8.83091C128.688 9.10025 128.735 9.23601 128.812 9.44624C128.972 9.88385 129.054 10.1733 129.202 10.6168L131.783 17.5738C131.312 17.8895 131.045 18.2496 130.569 18.6143L124.284 24.2952C123.386 25.0857 122.704 25.9357 121.724 26.5918L121.725 26.592ZM112.707 36.8237C114.156 36.8237 115.607 36.8365 117.054 36.8359C118.212 36.8355 118.469 36.5443 119.774 35.2198L131.163 24.7574C132.515 23.7133 132.763 22.8539 133.691 22.7767C133.746 23.4379 137.472 33.2911 138.091 35.0248C138.343 35.7315 138.556 36.1213 138.72 36.8237H144.096L140.867 27.9125C139.74 24.6605 131.516 2.7572 131.089 0.925781H125.713L119.196 18.8612C118.896 19.6371 118.67 20.2903 118.408 21.0207L112.707 36.8237Z" fill="white"/>
<path fill-rule="evenodd" clip-rule="evenodd" d="M189.358 26.939C189.483 26.4046 189.886 25.3755 190.125 24.758L195.948 8.73003C195.972 8.7647 196.003 8.78047 196.012 8.83958C196.021 8.89888 196.063 8.92568 196.076 8.94952L196.446 9.79321C196.606 10.231 196.688 10.5205 196.836 10.9642L198.499 15.5442C198.828 16.377 199.04 17.2081 199.417 17.921L195.641 21.256C195.198 21.6944 194.893 22.073 194.413 22.4559L191.918 24.6423C191.02 25.433 190.338 26.2828 189.359 26.939H189.358ZM180.34 37.1706C181.789 37.1706 183.241 37.1836 184.688 37.1831C185.846 37.1825 186.102 36.8914 187.407 35.5666L198.796 25.1046C200.148 24.0603 200.397 23.2009 201.324 23.1238C201.41 24.1517 205.948 35.4287 206.353 37.1706H211.729L208.501 28.2597C207.373 25.0075 199.149 3.10417 198.723 1.27295H193.347L180.34 37.1708L180.34 37.1706Z" fill="white"/>
<path fill-rule="evenodd" clip-rule="evenodd" d="M157.449 36.9971H162.999L171.256 14.5592C171.842 12.8683 176.087 2.02364 176.178 0.925781H170.802L160.224 29.54L155.664 17.1043C154.903 15.1661 149.885 1.73125 149.818 0.925781H144.269L156.682 34.6423C156.893 35.1887 157.409 36.5137 157.449 36.9969L157.449 36.9971Z" fill="white"/>
<path fill-rule="evenodd" clip-rule="evenodd" d="M75.9417 30.0605C76.4028 30.099 85.1536 32.3447 85.6532 32.6618H75.9417V37.1706H103.342C103.342 31.8537 104.521 32.9465 98.07 31.3442C96.0967 30.854 94.3983 30.335 92.4518 29.8521C90.6506 29.405 88.6036 28.848 86.8317 28.3619C85.8743 28.0993 84.9402 27.9111 84.0719 27.6534C83.3214 27.4306 81.9238 27.0038 81.1445 26.939V1.27295H75.9419V30.0605H75.9417Z" fill="white"/>
<path d="M1.50188 153.974V139.584H4.40748V145.974L10.2776 139.584H14.1844L8.76588 145.189L14.4789 153.974H10.7193L6.76337 147.221L4.40748 149.626V153.974H1.50188ZM28.9676 153.974H25.8068L24.5503 150.705H18.798L17.6103 153.974H14.528L20.133 139.584H23.2055L28.9676 153.974ZM23.6178 148.281L21.6349 142.941L19.6913 148.281H23.6178ZM30.5284 153.974V139.584H36.6439C38.1818 139.584 39.2976 139.714 39.9912 139.976C40.6915 140.231 41.251 140.69 41.6698 141.35C42.0886 142.011 42.2981 142.767 42.2981 143.618C42.2981 144.698 41.9807 145.591 41.3459 146.298C40.7111 146.998 39.7622 147.44 38.4992 147.623C39.1274 147.99 39.6444 148.392 40.0501 148.83C40.4624 149.269 41.0154 150.048 41.7091 151.167L43.4662 153.974H39.9912L37.8906 150.843C37.1445 149.724 36.6341 149.02 36.3592 148.732C36.0844 148.438 35.7932 148.238 35.4856 148.133C35.178 148.022 34.6905 147.967 34.023 147.967H33.434V153.974H30.5284ZM33.434 145.67H35.5838C36.9777 145.67 37.848 145.611 38.1949 145.493C38.5417 145.375 38.8133 145.172 39.0096 144.884C39.2059 144.596 39.3041 144.236 39.3041 143.805C39.3041 143.32 39.1732 142.931 38.9115 142.636C38.6562 142.335 38.293 142.146 37.8219 142.067C37.5863 142.034 36.8795 142.018 35.7016 142.018H33.434V145.67ZM58.0236 153.974H54.8628L53.6063 150.705H47.854L46.6663 153.974H43.584L49.189 139.584H52.2615L58.0236 153.974ZM52.6738 148.281L50.6909 142.941L48.7473 148.281H52.6738ZM58.9856 146.867C58.9856 145.401 59.2048 144.171 59.6433 143.176C59.9705 142.443 60.4155 141.786 60.9783 141.203C61.5476 140.621 62.1693 140.189 62.8434 139.907C63.7399 139.528 64.7739 139.338 65.9453 139.338C68.0656 139.338 69.7605 139.996 71.0301 141.311C72.3062 142.627 72.9443 144.456 72.9443 146.798C72.9443 149.122 72.3128 150.941 71.0497 152.256C69.7867 153.565 68.0983 154.22 65.9846 154.22C63.8446 154.22 62.1432 153.568 60.8801 152.266C59.6171 150.957 58.9856 149.158 58.9856 146.867ZM61.9796 146.769C61.9796 148.399 62.3558 149.635 63.1084 150.48C63.861 151.317 64.8164 151.736 65.9748 151.736C67.1331 151.736 68.082 151.32 68.8215 150.489C69.5675 149.652 69.9405 148.399 69.9405 146.73C69.9405 145.081 69.5773 143.85 68.8509 143.039C68.131 142.227 67.1723 141.822 65.9748 141.822C64.7772 141.822 63.8119 142.234 63.079 143.058C62.346 143.877 61.9796 145.113 61.9796 146.769ZM75.2609 153.974V139.584H78.1665V145.974L84.0366 139.584H87.9434L82.5249 145.189L88.2379 153.974H84.4783L80.5224 147.221L78.1665 149.626V153.974H75.2609ZM89.7496 153.974V139.584H100.42V142.018H92.6552V145.208H99.8799V147.633H92.6552V151.55H100.695V153.974H89.7496Z" fill="white"/>
<path d="M137.326 153.974V139.584H143.442C144.98 139.584 146.095 139.714 146.789 139.976C147.489 140.231 148.049 140.69 148.468 141.35C148.886 142.011 149.096 142.767 149.096 143.618C149.096 144.698 148.778 145.591 148.144 146.298C147.509 146.998 146.56 147.44 145.297 147.623C145.925 147.99 146.442 148.392 146.848 148.83C147.26 149.269 147.813 150.048 148.507 151.167L150.264 153.974H146.789L144.688 150.843C143.942 149.724 143.432 149.02 143.157 148.732C142.882 148.438 142.591 148.238 142.283 148.133C141.976 148.022 141.488 147.967 140.821 147.967H140.232V153.974H137.326ZM140.232 145.67H142.382C143.775 145.67 144.646 145.611 144.993 145.493C145.339 145.375 145.611 145.172 145.807 144.884C146.004 144.596 146.102 144.236 146.102 143.805C146.102 143.32 145.971 142.931 145.709 142.636C145.454 142.335 145.091 142.146 144.62 142.067C144.384 142.034 143.677 142.018 142.499 142.018H140.232V145.67ZM151.844 153.974V139.584H162.515V142.018H154.75V145.208H161.975V147.633H154.75V151.55H162.789V153.974H151.844ZM164.517 149.292L167.344 149.017C167.514 149.966 167.858 150.663 168.375 151.108C168.898 151.553 169.602 151.775 170.485 151.775C171.421 151.775 172.125 151.579 172.596 151.186C173.074 150.787 173.312 150.322 173.312 149.792C173.312 149.452 173.211 149.164 173.008 148.929C172.812 148.686 172.465 148.477 171.968 148.3C171.627 148.183 170.852 147.973 169.641 147.672C168.084 147.286 166.991 146.812 166.363 146.249C165.479 145.457 165.037 144.492 165.037 143.353C165.037 142.62 165.243 141.936 165.656 141.301C166.075 140.66 166.673 140.173 167.452 139.839C168.237 139.505 169.183 139.338 170.289 139.338C172.095 139.338 173.453 139.734 174.363 140.526C175.279 141.318 175.76 142.375 175.806 143.697L172.9 143.824C172.776 143.085 172.507 142.555 172.095 142.234C171.689 141.907 171.078 141.743 170.26 141.743C169.415 141.743 168.754 141.917 168.277 142.263C167.969 142.486 167.815 142.784 167.815 143.157C167.815 143.497 167.959 143.788 168.247 144.03C168.614 144.338 169.504 144.659 170.917 144.992C172.331 145.326 173.375 145.673 174.049 146.033C174.729 146.386 175.259 146.874 175.639 147.495C176.025 148.111 176.218 148.873 176.218 149.783C176.218 150.607 175.989 151.379 175.531 152.099C175.073 152.819 174.425 153.356 173.587 153.709C172.75 154.056 171.706 154.229 170.456 154.229C168.637 154.229 167.239 153.811 166.264 152.973C165.289 152.129 164.707 150.902 164.517 149.292ZM181.902 153.974V142.018H177.632V139.584H189.067V142.018H184.807V153.974H181.902ZM189.99 146.867C189.99 145.401 190.209 144.171 190.648 143.176C190.975 142.443 191.42 141.786 191.983 141.203C192.552 140.621 193.174 140.189 193.848 139.907C194.744 139.528 195.778 139.338 196.95 139.338C199.07 139.338 200.765 139.996 202.035 141.311C203.311 142.627 203.949 144.456 203.949 146.798C203.949 149.122 203.317 150.941 202.054 152.256C200.791 153.565 199.103 154.22 196.989 154.22C194.849 154.22 193.148 153.568 191.885 152.266C190.622 150.957 189.99 149.158 189.99 146.867ZM192.984 146.769C192.984 148.399 193.36 149.635 194.113 150.48C194.866 151.317 195.821 151.736 196.979 151.736C198.138 151.736 199.087 151.32 199.826 150.489C200.572 149.652 200.945 148.399 200.945 146.73C200.945 145.081 200.582 143.85 199.855 143.039C199.136 142.227 198.177 141.822 196.979 141.822C195.782 141.822 194.816 142.234 194.084 143.058C193.351 143.877 192.984 145.113 192.984 146.769Z" fill="white"/>
<path d="M236.839 139.556H242.202C243.264 139.556 244.054 139.602 244.573 139.693C245.098 139.779 245.565 139.962 245.973 140.242C246.388 140.523 246.733 140.898 247.008 141.368C247.282 141.832 247.42 142.354 247.42 142.933C247.42 143.562 247.249 144.138 246.907 144.663C246.571 145.188 246.114 145.582 245.534 145.844C246.352 146.082 246.98 146.488 247.42 147.061C247.859 147.635 248.079 148.309 248.079 149.084C248.079 149.694 247.935 150.289 247.648 150.869C247.368 151.443 246.98 151.903 246.486 152.251C245.998 152.593 245.394 152.803 244.674 152.883C244.222 152.931 243.133 152.962 241.406 152.974H236.839V139.556ZM239.548 141.789V144.892H241.324C242.379 144.892 243.035 144.877 243.292 144.846C243.755 144.791 244.118 144.633 244.381 144.37C244.649 144.102 244.784 143.751 244.784 143.318C244.784 142.903 244.668 142.567 244.436 142.311C244.21 142.049 243.871 141.89 243.42 141.835C243.151 141.804 242.379 141.789 241.104 141.789H239.548ZM239.548 147.125V150.713H242.056C243.032 150.713 243.652 150.686 243.914 150.631C244.317 150.558 244.643 150.381 244.893 150.1C245.15 149.813 245.278 149.432 245.278 148.956C245.278 148.553 245.18 148.212 244.985 147.931C244.79 147.65 244.506 147.446 244.134 147.318C243.768 147.189 242.968 147.125 241.736 147.125H239.548ZM262.476 152.974H259.529L258.357 149.926H252.994L251.886 152.974H249.012L254.238 139.556H257.103L262.476 152.974ZM257.488 147.665L255.639 142.686L253.827 147.665H257.488ZM263.931 152.974V139.556H269.634C271.068 139.556 272.108 139.678 272.755 139.922C273.408 140.16 273.929 140.587 274.32 141.203C274.711 141.82 274.906 142.525 274.906 143.318C274.906 144.325 274.61 145.158 274.018 145.817C273.426 146.469 272.541 146.881 271.364 147.052C271.949 147.394 272.431 147.769 272.81 148.178C273.194 148.587 273.71 149.313 274.357 150.356L275.995 152.974H272.755L270.796 150.054C270.1 149.011 269.625 148.355 269.368 148.086C269.112 147.812 268.84 147.626 268.554 147.528C268.267 147.424 267.812 147.373 267.19 147.373H266.641V152.974H263.931ZM266.641 145.231H268.645C269.945 145.231 270.756 145.176 271.08 145.066C271.403 144.956 271.656 144.767 271.84 144.499C272.023 144.23 272.114 143.894 272.114 143.492C272.114 143.04 271.992 142.677 271.748 142.402C271.51 142.122 271.171 141.945 270.732 141.872C270.512 141.841 269.853 141.826 268.755 141.826H266.641V145.231Z" fill="white"/>
</svg>
